<svg xmlns="http://www.w3.org/2000/svg" viewBox="0 0 128 128" role="img" aria-labelledby="title desc">
  <title>Handheld Radio</title>
  <desc>Stylized handheld radio icon for the LSRP inventory UI.</desc>
  <defs>
    <linearGradient id="body" x1="0" x2="0" y1="0" y2="1">
      <stop offset="0%" stop-color="#44515f"/>
      <stop offset="100%" stop-color="#1b232c"/>
    </linearGradient>
    <linearGradient id="screen" x1="0" x2="0" y1="0" y2="1">
      <stop offset="0%" stop-color="#79e0ff"/>
      <stop offset="100%" stop-color="#1ea3d8"/>
    </linearGradient>
  </defs>
  <rect x="46" y="6" width="8" height="22" rx="3" fill="#0d1217"/>
  <rect x="50" y="4" width="34" height="8" rx="4" transform="rotate(28 67 8)" fill="#0d1217"/>
  <rect x="28" y="22" width="72" height="94" rx="16" fill="url(#body)" stroke="#0b1015" stroke-width="4"/>
  <rect x="40" y="34" width="48" height="24" rx="6" fill="url(#screen)" stroke="#a9f0ff" stroke-width="2"/>
  <rect x="40" y="66" width="48" height="10" rx="5" fill="#11181f"/>
  <circle cx="46" cy="90" r="6" fill="#f5c65b"/>
  <circle cx="64" cy="90" r="6" fill="#f5c65b"/>
  <circle cx="82" cy="90" r="6" fill="#f5c65b"/>
  <rect x="42" y="102" width="44" height="6" rx="3" fill="#11181f"/>
  <path d="M96 30c8 4 14 12 16 21" fill="none" stroke="#79e0ff" stroke-linecap="round" stroke-width="4" opacity="0.9"/>
  <path d="M99 42c4 2 7 6 8 10" fill="none" stroke="#b5f2ff" stroke-linecap="round" stroke-width="3" opacity="0.9"/>
</svg>